<?xml version="1.0"?>
<svg xmlns="http://www.w3.org/2000/svg" xmlns:xlink="http://www.w3.org/1999/xlink" version="1.1" id="Capa_1" x="0px" y="0px" viewBox="0 0 512 512" style="enable-background:new 0 0 512 512;" xml:space="preserve" width="512px" height="512px" class=""><g><g>
	<g>
		<path d="M344.917,126.805c-0.599-4.241-4.25-7.381-8.533-7.339H175.616c-4.283-0.042-7.934,3.097-8.533,7.339l-47.616,341.333    c-0.03,0.398-0.03,0.797,0,1.195c0,23.564,19.103,42.667,42.667,42.667h187.733c23.564,0,42.667-19.102,42.667-42.667    c0.03-0.398,0.03-0.797,0-1.195L344.917,126.805z M349.867,494.933H162.132c-13.941,0.003-25.321-11.15-25.6-25.088    l46.507-333.312h145.92l46.507,333.312C375.188,483.784,363.808,494.936,349.867,494.933z" data-original="#000000" class="active-path" data-old_color="#000000" fill="#737373"/>
	</g>
</g><g>
	<g>
		<path d="M255.999,0c-47.019,0-85.333,42.069-85.333,93.867c0,4.713,3.82,8.533,8.533,8.533h153.6c4.713,0,8.533-3.82,8.533-8.533    C341.333,42.069,303.019,0,255.999,0z M187.733,85.333c4.181-38.315,32.768-68.267,68.267-68.267    c35.499,0,64.512,29.952,68.267,68.267H187.733z" data-original="#000000" class="active-path" data-old_color="#000000" fill="#737373"/>
	</g>
</g><g>
	<g>
		<path d="M345.6,85.333H166.4c-11.782,0-21.333,9.551-21.333,21.333v8.533c0,11.782,9.551,21.333,21.333,21.333h179.2    c11.782,0,21.333-9.551,21.333-21.333v-8.533C366.933,94.885,357.382,85.333,345.6,85.333z M349.867,115.2    c0,2.356-1.91,4.267-4.267,4.267H166.4c-2.356,0-4.267-1.91-4.267-4.267v-8.533c0-2.356,1.91-4.267,4.267-4.267h179.2    c2.356,0,4.267,1.91,4.267,4.267V115.2z" data-original="#000000" class="active-path" data-old_color="#000000" fill="#737373"/>
	</g>
</g><g>
	<g>
		<path d="M353.451,238.933c-15.936-6.886-33.16-10.29-50.517-9.984c-17.358-0.309-34.582,3.095-50.517,9.984    c-13.678,5.895-28.457,8.805-43.349,8.533c-14.864,0.264-29.614-2.645-43.264-8.533c-4.312-2.003-9.432-0.131-11.435,4.181    c-2.003,4.312-0.131,9.432,4.181,11.435c15.936,6.889,33.159,10.293,50.517,9.984c17.37,0.252,34.594-3.21,50.517-10.155    c13.65-5.888,28.4-8.798,43.264-8.533c14.892-0.271,29.671,2.638,43.349,8.533c0.096,0.047,0.192,0.092,0.289,0.136    c4.303,1.923,9.35-0.006,11.273-4.309C359.682,245.903,357.753,240.856,353.451,238.933z" data-original="#000000" class="active-path" data-old_color="#000000" fill="#737373"/>
	</g>
</g><g>
	<g>
		<path d="M195.583,286.891c-0.406-1.047-1.015-2.004-1.792-2.816c-0.016-0.017-0.033-0.033-0.049-0.049    c-3.346-3.319-8.749-3.297-12.068,0.049c-0.777,0.812-1.386,1.769-1.792,2.816c-0.913,2.065-0.913,4.42,0,6.485    c0.434,1.033,1.04,1.986,1.792,2.816c1.61,1.597,3.79,2.488,6.059,2.475c2.268,0.013,4.448-0.877,6.059-2.475    c0.752-0.831,1.358-1.783,1.792-2.816C196.497,291.311,196.497,288.956,195.583,286.891z" data-original="#000000" class="active-path" data-old_color="#000000" fill="#737373"/>
	</g>
</g><g>
	<g>
		<path d="M193.791,318.208c-0.83-0.752-1.783-1.358-2.816-1.792c-3.178-1.336-6.847-0.629-9.301,1.792    c-1.597,1.61-2.488,3.79-2.475,6.059c-0.032,1.12,0.202,2.231,0.683,3.243c0.434,1.033,1.04,1.986,1.792,2.816    c1.61,1.597,3.79,2.488,6.059,2.475c2.268,0.013,4.448-0.877,6.059-2.475c0.752-0.83,1.358-1.783,1.792-2.816    c0.437-1.026,0.669-2.128,0.683-3.243C196.234,322.007,195.351,319.843,193.791,318.208z" data-original="#000000" class="active-path" data-old_color="#000000" fill="#737373"/>
	</g>
</g><g>
	<g>
		<path d="M187.051,355.157c-0.406-1.047-1.015-2.004-1.792-2.816c-1.614-1.628-3.816-2.537-6.108-2.524    c-4.713,0.027-8.511,3.87-8.484,8.583c0,4.713,3.82,8.533,8.533,8.533c1.119,0.029,2.23-0.205,3.243-0.683    c1.033-0.434,1.986-1.04,2.816-1.792C187.679,362.005,188.387,358.335,187.051,355.157z" data-original="#000000" class="active-path" data-old_color="#000000" fill="#737373"/>
	</g>
</g><g>
	<g>
		<path d="M185.259,386.475c-0.42-0.386-0.877-0.729-1.365-1.024c-0.435-0.339-0.926-0.599-1.451-0.768    c-0.509-0.257-1.057-0.43-1.621-0.512c-2.784-0.557-5.663,0.306-7.68,2.304c-1.597,1.61-2.488,3.79-2.475,6.059    c0,4.713,3.82,8.533,8.533,8.533s8.533-3.821,8.533-8.533C187.702,390.274,186.817,388.11,185.259,386.475z" data-original="#000000" class="active-path" data-old_color="#000000" fill="#737373"/>
	</g>
</g><g>
	<g>
		<path d="M178.517,423.424c-0.406-1.047-1.015-2.004-1.792-2.816c-0.42-0.386-0.877-0.729-1.365-1.024    c-0.435-0.339-0.926-0.599-1.451-0.768l-1.536-0.512c-1.095-0.249-2.233-0.249-3.328,0c-0.565,0.082-1.112,0.255-1.621,0.512    c-0.545,0.185-1.061,0.443-1.536,0.768l-1.28,1.024c-0.754,0.829-1.36,1.782-1.792,2.816c-0.481,1.012-0.715,2.123-0.683,3.243    c0,4.713,3.82,8.533,8.533,8.533c1.098-0.005,2.185-0.223,3.2-0.64C178.226,432.769,180.307,427.783,178.517,423.424z" data-original="#000000" class="active-path" data-old_color="#000000" fill="#737373"/>
	</g>
</g><g>
	<g>
		<path d="M176.725,454.741c-0.42-0.386-0.877-0.729-1.365-1.024c-0.435-0.339-0.926-0.599-1.451-0.768    c-0.509-0.257-1.057-0.43-1.621-0.512c-1.635-0.346-3.337-0.167-4.864,0.512c-1.047,0.406-2.004,1.015-2.816,1.792    c-1.597,1.61-2.488,3.79-2.475,6.059c0.013,1.115,0.245,2.217,0.683,3.243c0.434,1.033,1.04,1.986,1.792,2.816    c1.61,1.597,3.79,2.488,6.059,2.475c4.713,0,8.533-3.82,8.533-8.533C179.169,458.541,178.285,456.377,176.725,454.741z" data-original="#000000" class="active-path" data-old_color="#000000" fill="#737373"/>
	</g>
</g><g>
	<g>
		<path d="M332.117,286.72c-0.406-1.047-1.015-2.004-1.792-2.816c-2.036-2.026-4.954-2.892-7.765-2.304    c-0.544,0.148-1.062,0.378-1.536,0.683c-0.545,0.185-1.061,0.443-1.536,0.768l-1.28,1.024c-0.777,0.812-1.386,1.769-1.792,2.816    c-0.417,1.016-0.635,2.102-0.64,3.2c-0.023,4.713,3.778,8.552,8.491,8.576c1.127-0.067,2.229-0.357,3.243-0.853    c2.144-0.776,3.832-2.464,4.608-4.608C333.03,291.14,333.03,288.785,332.117,286.72z" data-original="#000000" class="active-path" data-old_color="#000000" fill="#737373"/>
	</g>
</g><g>
	<g>
		<path d="M330.325,318.208c-2.454-2.421-6.124-3.128-9.301-1.792c-1.047,0.406-2.004,1.015-2.816,1.792    c-1.597,1.61-2.488,3.79-2.475,6.059c-0.014,1.109,0.189,2.211,0.597,3.243c0.498,1.018,1.13,1.965,1.877,2.816    c1.61,1.597,3.79,2.488,6.059,2.475c2.268,0.013,4.448-0.877,6.059-2.475c0.752-0.83,1.358-1.783,1.792-2.816    c0.437-1.026,0.669-2.128,0.683-3.243C332.769,322.007,331.885,319.843,330.325,318.208z" data-original="#000000" class="active-path" data-old_color="#000000" fill="#737373"/>
	</g>
</g><g>
	<g>
		<path d="M338.809,352.292c-3.346-3.319-8.749-3.296-12.068,0.05c-1.597,1.61-2.488,3.79-2.475,6.059    c0,4.713,3.821,8.533,8.533,8.533c4.713,0,8.533-3.82,8.533-8.533C341.346,356.107,340.437,353.906,338.809,352.292z" data-original="#000000" class="active-path" data-old_color="#000000" fill="#737373"/>
	</g>
</g><g>
	<g>
		<path d="M338.859,386.475c-2.454-2.421-6.124-3.128-9.301-1.792c-1.047,0.406-2.004,1.015-2.816,1.792    c-1.597,1.61-2.488,3.79-2.475,6.059c0,4.713,3.821,8.533,8.533,8.533c1.115-0.013,2.217-0.245,3.243-0.683    c1.033-0.434,1.986-1.04,2.816-1.792c1.597-1.61,2.488-3.79,2.475-6.059C341.346,390.265,340.456,388.085,338.859,386.475z" data-original="#000000" class="active-path" data-old_color="#000000" fill="#737373"/>
	</g>
</g><g>
	<g>
		<path d="M349.184,423.424c-0.432-1.034-1.038-1.987-1.792-2.816c-0.42-0.386-0.877-0.729-1.365-1.024    c-0.435-0.339-0.926-0.599-1.451-0.768c-0.509-0.257-1.057-0.43-1.621-0.512c-2.784-0.557-5.663,0.306-7.68,2.304    c-0.754,0.829-1.36,1.782-1.792,2.816c-0.481,1.012-0.715,2.123-0.683,3.243c-0.013,2.268,0.877,4.448,2.475,6.059    c0.829,0.754,1.782,1.36,2.816,1.792c1.026,0.437,2.128,0.669,3.243,0.683c1.098-0.005,2.185-0.223,3.2-0.64    C348.893,432.769,350.975,427.783,349.184,423.424z" data-original="#000000" class="active-path" data-old_color="#000000" fill="#737373"/>
	</g>
</g><g>
	<g>
		<path d="M347.392,454.741c-0.42-0.386-0.877-0.729-1.365-1.024c-0.435-0.339-0.926-0.599-1.451-0.768    c-0.509-0.257-1.057-0.43-1.621-0.512c-1.635-0.346-3.337-0.167-4.864,0.512c-1.047,0.406-2.004,1.015-2.816,1.792    c-1.597,1.61-2.488,3.79-2.475,6.059c0,4.713,3.821,8.533,8.533,8.533s8.533-3.82,8.533-8.533    C349.835,458.541,348.951,456.377,347.392,454.741z" data-original="#000000" class="active-path" data-old_color="#000000" fill="#737373"/>
	</g>
</g><g>
	<g>
		<path d="M255.999,34.133c-4.713,0-8.533,3.82-8.533,8.533c0.013,1.115,0.245,2.217,0.683,3.243    c0.434,1.033,1.04,1.986,1.792,2.816c0.829,0.754,1.782,1.36,2.816,1.792c1.026,0.437,2.128,0.669,3.243,0.683    c2.268,0.013,4.448-0.877,6.059-2.475c0.752-0.83,1.358-1.783,1.792-2.816c0.437-1.026,0.669-2.128,0.683-3.243    C264.533,37.954,260.713,34.133,255.999,34.133z" data-original="#000000" class="active-path" data-old_color="#000000" fill="#737373"/>
	</g>
</g><g>
	<g>
		<path d="M227.924,53.504l-1.28-1.024c-0.475-0.325-0.991-0.583-1.536-0.768c-0.509-0.257-1.057-0.43-1.621-0.512    c-1.653-0.293-3.356-0.054-4.864,0.683c-1.034,0.432-1.987,1.038-2.816,1.792c-1.597,1.61-2.488,3.79-2.475,6.059    c-0.014,1.109,0.189,2.211,0.597,3.243c0.498,1.018,1.13,1.965,1.877,2.816c1.61,1.597,3.79,2.488,6.059,2.475    c2.268,0.013,4.448-0.877,6.059-2.475c0.752-0.83,1.358-1.783,1.792-2.816c0.437-1.026,0.669-2.128,0.683-3.243    C230.411,57.415,229.525,55.182,227.924,53.504z" data-original="#000000" class="active-path" data-old_color="#000000" fill="#737373"/>
	</g>
</g><g>
	<g>
		<path d="M290.133,51.2c-4.713,0-8.533,3.82-8.533,8.533c-0.014,1.109,0.189,2.211,0.597,3.243c0.498,1.018,1.13,1.965,1.877,2.816    c0.848,0.753,1.795,1.384,2.816,1.877c1.032,0.408,2.133,0.611,3.243,0.597c1.109,0.014,2.211-0.189,3.243-0.597    c1.02-0.495,1.967-1.126,2.816-1.877c0.751-0.849,1.383-1.796,1.877-2.816c0.408-1.032,0.611-2.133,0.597-3.243    C298.667,55.021,294.846,51.2,290.133,51.2z" data-original="#000000" class="active-path" data-old_color="#000000" fill="#737373"/>
	</g>
</g><g>
	<g>
		<path d="M230.4,332.8c-4.713,0-8.533,3.821-8.533,8.533V435.2c0,4.713,3.82,8.533,8.533,8.533c4.713,0,8.533-3.82,8.533-8.533    v-93.867C238.932,336.621,235.113,332.8,230.4,332.8z" data-original="#000000" class="active-path" data-old_color="#000000" fill="#737373"/>
	</g>
</g><g>
	<g>
		<path d="M255.999,332.8h-25.6c-4.713,0-8.533,3.821-8.533,8.533v51.2c0,4.713,3.82,8.533,8.533,8.533    c4.713,0,8.533-3.821,8.533-8.533v-42.667h17.067c7.293-0.021,13.793,4.593,16.178,11.485c3.083,8.907-1.639,18.627-10.546,21.71    c-3.937,1.697-6.004,6.052-4.828,10.176c1.292,4.532,6.013,7.159,10.546,5.867c13.602-4.823,22.701-17.68,22.726-32.113    C290.107,348.14,274.851,332.832,255.999,332.8z" data-original="#000000" class="active-path" data-old_color="#000000" fill="#737373"/>
	</g>
</g></g> </svg>
